<?xml version="1.0"?>
<svg xmlns="http://www.w3.org/2000/svg" xmlns:xlink="http://www.w3.org/1999/xlink" version="1.1" id="Capa_1" x="0px" y="0px" viewBox="0 0 497.143 497.143" style="enable-background:new 0 0 497.143 497.143;" xml:space="preserve" width="512px" height="512px"><g><g>
	<g>
		<g>
			<path d="M202.862,192.987h36.571c5.049,0,9.143-4.093,9.143-9.143v-18.286c0-5.049-4.093-9.143-9.143-9.143h-36.571     c-5.049,0-9.143,4.093-9.143,9.143v18.286C193.719,188.894,197.812,192.987,202.862,192.987z" data-original="#000000" class="active-path" data-old_color="#000000" fill="#FEF5D8"/>
			<path d="M468.654,379.246c-0.2-1.137-0.416-2.271-0.649-3.401V165.559c0-5.049-4.093-9.143-9.143-9.143H422.29v137.143     c0,15.148-12.28,27.429-27.429,27.429H94.976l-1.829,0.759v81.527c0,5.049,4.093,9.143,9.143,9.143h301.714     c0.621,0.055,1.234,0.178,1.829,0.366c0.579,0.059,1.152,0.172,1.71,0.338l89.6,37.321L468.654,379.246z" data-original="#000000" class="active-path" data-old_color="#000000" fill="#FEF5D8"/>
			<path d="M321.719,192.987h36.571c5.049,0,9.143-4.093,9.143-9.143v-18.286c0-5.049-4.093-9.143-9.143-9.143h-36.571     c-5.049,0-9.143,4.093-9.143,9.143v18.286C312.576,188.894,316.669,192.987,321.719,192.987z" data-original="#000000" class="active-path" data-old_color="#000000" fill="#FEF5D8"/>
			<path d="M129.719,183.845v-18.286c0-5.049-4.093-9.143-9.143-9.143H84.005c-5.049,0-9.143,4.093-9.143,9.143v18.286     c0,5.049,4.093,9.143,9.143,9.143h36.571C125.625,192.987,129.719,188.894,129.719,183.845z" data-original="#000000" class="active-path" data-old_color="#000000" fill="#FEF5D8"/>
			<path d="M394.862,302.702c5.049,0,9.143-4.093,9.143-9.143V55.845c0-5.049-4.093-9.143-9.143-9.143H38.29     c-5.049,0-9.143,4.093-9.143,9.143V266.13c0,1.164-0.221,2.318-0.649,3.401L0,340.754l89.6-37.349     c1.124-0.469,2.33-0.708,3.547-0.704H394.862z M294.29,165.559c0-15.148,12.28-27.429,27.429-27.429h36.571     c15.148,0,27.429,12.28,27.429,27.429v18.286c0,15.148-12.28,27.429-27.429,27.429h-36.571c-15.148,0-27.429-12.28-27.429-27.429     V165.559z M175.433,165.559c0-15.148,12.28-27.429,27.429-27.429h36.571c15.148,0,27.429,12.28,27.429,27.429v18.286     c0,15.148-12.28,27.429-27.429,27.429h-36.571c-15.148,0-27.429-12.28-27.429-27.429V165.559z M84.005,211.273     c-15.148,0-27.429-12.28-27.429-27.429v-18.286c0-15.148,12.28-27.429,27.429-27.429h36.571c15.148,0,27.429,12.28,27.429,27.429     v18.286c0,15.148-12.28,27.429-27.429,27.429H84.005z" data-original="#000000" class="active-path" data-old_color="#000000" fill="#FEF5D8"/>
		</g>
	</g>
</g></g> </svg>
